<svg width="16" height="16" viewBox="0 0 16 16" fill="none" xmlns="http://www.w3.org/2000/svg">
  <path d="M7.3335 2.66667H2.66683C2.31321 2.66667 1.97407 2.80715 1.72402 3.0572C1.47397 3.30724 1.3335 3.64638 1.3335 4.00001V13.3333C1.3335 13.687 1.47397 14.0261 1.72402 14.2761C1.97407 14.5262 2.31321 14.6667 2.66683 14.6667H12.0002C12.3538 14.6667 12.6929 14.5262 12.943 14.2761C13.193 14.0261 13.3335 13.687 13.3335 13.3333V8.66667" stroke="#585C5E" stroke-width="1.33" stroke-linecap="round" stroke-linejoin="round"/>
  <path d="M12.3335 1.66662C12.5987 1.40141 12.9584 1.25241 13.3335 1.25241C13.7086 1.25241 14.0683 1.40141 14.3335 1.66662C14.5987 1.93184 14.7477 2.29155 14.7477 2.66662C14.7477 3.0417 14.5987 3.40141 14.3335 3.66662L8.00016 9.99996L5.3335 10.6666L6.00016 7.99996L12.3335 1.66662Z" stroke="#585C5E" stroke-width="1.33" stroke-linecap="round" stroke-linejoin="round"/>
</svg>
