<svg width="20" height="20" viewBox="0 0 20 20" fill="none" xmlns="http://www.w3.org/2000/svg">
  <g opacity="0.4">
    <path d="M8.33301 10.8333C8.69088 11.3118 9.14747 11.7076 9.6718 11.9941C10.1961 12.2806 10.7759 12.4509 11.3719 12.4936C11.9678 12.5363 12.566 12.4503 13.1258 12.2415C13.6856 12.0326 14.1939 11.7059 14.6163 11.2833L17.1163 8.78331C17.8753 7.99747 18.2953 6.94496 18.2858 5.85248C18.2763 4.75999 17.8381 3.71494 17.0656 2.9424C16.2931 2.16987 15.248 1.73167 14.1555 1.72217C13.063 1.71268 12.0105 2.13266 11.2247 2.89165L9.79134 4.31665" stroke="#24282A" stroke-width="2.08" stroke-linecap="round" stroke-linejoin="round"/>
    <path d="M11.6668 9.16659C11.309 8.68815 10.8524 8.29227 10.328 8.00581C9.80371 7.71934 9.22391 7.54899 8.62796 7.50631C8.03201 7.46363 7.43384 7.54962 6.87405 7.75844C6.31425 7.96726 5.8059 8.29403 5.3835 8.71659L2.8835 11.2166C2.12451 12.0024 1.70453 13.0549 1.71402 14.1474C1.72352 15.2399 2.16172 16.285 2.93426 17.0575C3.70679 17.83 4.75184 18.2682 5.84433 18.2777C6.93681 18.2872 7.98932 17.8673 8.77517 17.1083L10.2002 15.6833" stroke="#24282A" stroke-width="2.08" stroke-linecap="round" stroke-linejoin="round"/>
  </g>
</svg>
