<svg width="20" height="20" viewBox="0 0 20 20" fill="none" xmlns="http://www.w3.org/2000/svg">
  <g opacity="0.4">
    <path d="M11.9694 8.13137L11.9694 8.13136C12.4715 7.96397 12.7428 7.42124 12.5755 6.91915L12.5755 6.91914C12.4081 6.41703 11.8652 6.1457 11.3632 6.31303L8.18021 7.37407V6.06115L11.9694 4.79814L11.9694 4.79814C12.4715 4.63075 12.7428 4.08802 12.5755 3.58593L12.5755 3.58591C12.4081 3.08381 11.8652 2.81248 11.3632 2.97981L8.18021 4.0408V1.66667C8.18021 1.13741 7.75114 0.708336 7.22188 0.708336C6.69262 0.708336 6.26355 1.13741 6.26355 1.66667V4.67963L4.69652 5.20197L4.69651 5.20197C4.19441 5.36936 3.92308 5.9121 4.0904 6.41419L4.09041 6.41421C4.22438 6.81599 4.59837 7.06967 4.99949 7.06967C5.10007 7.06967 5.2023 7.05373 5.30264 7.02032L5.30269 7.02031L6.26355 6.69999V8.01291L4.69657 8.53519L4.69657 8.5352C4.19446 8.70259 3.92313 9.24532 4.09046 9.74741L4.09046 9.74743C4.22443 10.1492 4.59842 10.4029 4.99954 10.4029C5.10013 10.4029 5.20236 10.387 5.3027 10.3535L5.30274 10.3535L6.2636 10.0332V18.3333C6.2636 18.8626 6.69268 19.2917 7.22194 19.2917C12.3455 19.2917 16.5136 15.1235 16.5136 10V9.99997C16.5135 9.47074 16.0844 9.04167 15.5552 9.04167C15.0259 9.04167 14.5968 9.47074 14.5968 10C14.5968 13.7416 11.7955 16.8413 8.18021 17.3125V9.39438L11.9694 8.13137Z" fill="#585C5E" stroke="#585C5E" stroke-width="0.25"/>
  </g>
</svg>
