<svg width="18" height="18" viewBox="0 0 18 18" fill="none" xmlns="http://www.w3.org/2000/svg">
  <path d="M18 4C18 1.79086 16.2091 0 14 0H4C1.79086 0 0 1.79086 0 4V14C0 16.2091 1.79086 18 4 18H14C16.2091 18 18 16.2091 18 14V4Z" fill="#E30A17"/>
  <path d="M7.2002 4.5C8.80163 4.5 10.2077 5.33653 11.0052 6.59644C10.3461 5.86193 9.38961 5.4 8.3252 5.4C6.33698 5.4 4.7252 7.01179 4.7252 9C4.7252 10.9882 6.33698 12.6 8.3252 12.6C9.38961 12.6 10.3461 12.1381 11.0052 11.4037C10.2077 12.6634 8.80163 13.5 7.2002 13.5C4.7149 13.5 2.7002 11.4853 2.7002 9C2.7002 6.51471 4.7149 4.5 7.2002 4.5ZM10.7627 9L14.833 10.3225L12.3174 6.86014V11.1399L14.833 7.67745L10.7627 9Z" fill="white"/>
</svg>
