<svg width="76" height="40" viewBox="0 0 76 40" fill="none" xmlns="http://www.w3.org/2000/svg">
  <path
    d="M6.84371 32.2384C7.51598 33.3384 9.04386 34.5607 11.7329 34.5607C13.4747 34.5607 16.1332 33.5523 16.1332 30.3438V28.9993C15.0637 30.1604 13.5358 30.6188 11.7329 30.7716C6.23256 31.23 1.34333 27.013 1.25165 21.4821C1.15998 16.1039 4.88802 11.7036 10.2356 11.7036C12.6191 11.7036 14.5748 12.4676 16.0416 13.8426H16.1332V12.2231H22.367V30.8022C22.367 36.8526 17.9056 40 11.7329 40C7.97435 40 3.63515 39.1444 1.71002 34.7441L6.84371 32.2384ZM12.0996 25.5157C14.5442 25.5157 16.286 23.7433 16.286 21.2987C16.286 18.793 14.422 17.0206 12.0996 17.0206C9.74669 17.0206 7.88267 18.793 7.88267 21.2987C7.88267 23.7433 9.56335 25.5157 12.0996 25.5157Z"
    fill="#24282A"/>
  <path d="M24.1699 0H30.4037V30.3132H24.1699V0Z" fill="#24282A"/>
  <path
    d="M38.3486 22.1238C38.3486 24.9045 40.671 25.8518 42.26 25.8518C44.2768 25.8518 45.163 25.4545 46.6603 23.835L51.1828 26.0963C49.1355 29.5187 45.8352 30.8327 41.8016 30.8327C36.3318 30.8327 31.8704 26.5241 31.8704 21.2681C31.8704 15.9817 36.3318 11.673 41.8016 11.673C47.302 11.673 51.4884 14.9121 51.4884 21.2681C51.4884 21.5126 51.4884 21.9099 51.4578 22.1238H38.3486ZM45.4074 18.6707C45.1324 16.7762 43.8184 15.7372 41.985 15.7372C39.8459 15.7372 38.6236 17.0206 38.5319 18.6707H45.4074Z"
    fill="#24282A"/>
  <path d="M67.1647 20.8098L72.8484 12.2537H66.0035L63.7117 15.7372L67.1647 20.8098Z" fill="#24282A"/>
  <path d="M67.1646 22.3071L63.7727 27.1658L66.9507 30.3132L74.1318 30.3438L67.1646 22.3071Z" fill="#24282A"/>
  <path d="M66.3702 21.4821L56.1028 21.5126L49.9607 12.2537H60.1975L66.3702 21.4821Z" fill="#F16025"/>
  <path d="M49.9607 30.3438H60.1975L66.3702 21.4821L56.1028 21.5127L49.9607 30.3438Z" fill="#F68722"/>
</svg>
